<svg width="100%" height="100%" viewBox="0 0 20 16" fill="none" xmlns="http://www.w3.org/2000/svg">
<g clip-path="url(#clip0_591_2273)">
<path d="M0 0.5H20V15.5H0" fill="#BD3D44"/>
<path d="M0 2.22803H20ZM0 4.53115H20ZM0 6.84365H20ZM0 9.15615H20ZM0 11.4687H20ZM0 13.7812H20Z" fill="black"/>
<path d="M20 14.3593H0V13.203H20V14.3593ZM20 12.0468H0V10.8905H20V12.0468ZM20 9.73428H0V8.57803H20V9.73428ZM20 7.42178H0V6.26553H20V7.42178ZM20 5.10928H0V3.95303H20V5.10928ZM20 2.80615H0V1.6499H20V2.80615Z" fill="white"/>
<path d="M0 0.5H11.4V8.57812H0" fill="#192F5D"/>
<path d="M0.9375 0.84375L0.834375 1.15625H0.5L0.76875 1.35312L0.65625 1.6875L0.9375 1.47812L1.21875 1.6875L1.10625 1.35312L1.375 1.15625H1.04062L0.9375 0.84375Z" fill="white"/>
<path d="M2.84375 0.84375L2.74062 1.15625H2.40625L2.675 1.35312L2.5625 1.6875L2.84375 1.47812L3.125 1.6875L3.0125 1.35312L3.28125 1.15625H2.94688L2.84375 0.84375Z" fill="white"/>
<path d="M4.75 0.84375L4.64687 1.15625H4.3125L4.58125 1.35312L4.46875 1.6875L4.75 1.47812L5.03125 1.6875L4.91875 1.35312L5.1875 1.15625H4.85313L4.75 0.84375Z" fill="white"/>
<path d="M6.65625 0.84375L6.55312 1.15625H6.21875L6.4875 1.35312L6.375 1.6875L6.65625 1.47812L6.9375 1.6875L6.825 1.35312L7.09375 1.15625H6.75938L6.65625 0.84375Z" fill="white"/>
<path d="M8.5625 0.84375L8.45938 1.15625H8.125L8.39375 1.35312L8.28125 1.6875L8.5625 1.47812L8.84375 1.6875L8.73125 1.35312L9 1.15625H8.66562L8.5625 0.84375Z" fill="white"/>
<path d="M10.2688 1.35312L10.1562 1.6875L10.4375 1.47812L10.7188 1.6875L10.6062 1.35312L10.875 1.15625H10.5406L10.4375 0.84375L10.3344 1.15625H10L10.2688 1.35312Z" fill="white"/>
<path d="M1.90625 1.65625L1.80313 1.96875H1.46875L1.7375 2.16562L1.625 2.5L1.90625 2.29062L2.1875 2.5L2.075 2.16562L2.34375 1.96875H2.00938L1.90625 1.65625Z" fill="white"/>
<path d="M3.8125 1.65625L3.70937 1.96875H3.375L3.64375 2.16562L3.53125 2.5L3.8125 2.29062L4.09375 2.5L3.98125 2.16562L4.25 1.96875H3.91563L3.8125 1.65625Z" fill="white"/>
<path d="M5.71875 1.65625L5.61562 1.96875H5.28125L5.55 2.16562L5.4375 2.5L5.71875 2.29062L6 2.5L5.8875 2.16562L6.15625 1.96875H5.82188L5.71875 1.65625Z" fill="white"/>
<path d="M7.59375 1.65625L7.49062 1.96875H7.15625L7.425 2.16562L7.3125 2.5L7.59375 2.29062L7.875 2.5L7.7625 2.16562L8.03125 1.96875H7.69688L7.59375 1.65625Z" fill="white"/>
<path d="M9.5 1.65625L9.39688 1.96875H9.0625L9.33125 2.16562L9.21875 2.5L9.5 2.29062L9.78125 2.5L9.66875 2.16562L9.9375 1.96875H9.60312L9.5 1.65625Z" fill="white"/>
<path d="M0.9375 2.46875L0.834375 2.78125H0.5L0.76875 2.97813L0.65625 3.3125L0.9375 3.10313L1.21875 3.3125L1.10625 2.97813L1.375 2.78125H1.04062L0.9375 2.46875Z" fill="white"/>
<path d="M2.84375 2.46875L2.74062 2.78125H2.40625L2.675 2.97813L2.5625 3.3125L2.84375 3.10313L3.125 3.3125L3.0125 2.97813L3.28125 2.78125H2.94688L2.84375 2.46875Z" fill="white"/>
<path d="M4.75 2.46875L4.64687 2.78125H4.3125L4.58125 2.97813L4.46875 3.3125L4.75 3.10313L5.03125 3.3125L4.91875 2.97813L5.1875 2.78125H4.85313L4.75 2.46875Z" fill="white"/>
<path d="M6.65625 2.46875L6.55312 2.78125H6.21875L6.4875 2.97813L6.375 3.3125L6.65625 3.10313L6.9375 3.3125L6.825 2.97813L7.09375 2.78125H6.75938L6.65625 2.46875Z" fill="white"/>
<path d="M8.5625 2.46875L8.45938 2.78125H8.125L8.39375 2.97813L8.28125 3.3125L8.5625 3.10313L8.84375 3.3125L8.73125 2.97813L9 2.78125H8.66562L8.5625 2.46875Z" fill="white"/>
<path d="M10.4375 2.46875L10.3344 2.78125H10L10.2688 2.97813L10.1562 3.3125L10.4375 3.10313L10.7188 3.3125L10.6062 2.97813L10.875 2.78125H10.5406L10.4375 2.46875Z" fill="white"/>
<path d="M1.90625 3.28125L1.80313 3.59375H1.46875L1.7375 3.79063L1.625 4.125L1.90625 3.91563L2.1875 4.125L2.075 3.79063L2.34375 3.59375H2.00938L1.90625 3.28125Z" fill="white"/>
<path d="M3.8125 3.28125L3.70937 3.59375H3.375L3.64375 3.79063L3.53125 4.125L3.8125 3.91563L4.09375 4.125L3.98125 3.79063L4.25 3.59375H3.91563L3.8125 3.28125Z" fill="white"/>
<path d="M5.71875 3.28125L5.61562 3.59375H5.28125L5.55 3.79063L5.4375 4.125L5.71875 3.91563L6 4.125L5.8875 3.79063L6.15625 3.59375H5.82188L5.71875 3.28125Z" fill="white"/>
<path d="M7.59375 3.28125L7.49062 3.59375H7.15625L7.425 3.79063L7.3125 4.125L7.59375 3.91563L7.875 4.125L7.7625 3.79063L8.03125 3.59375H7.69688L7.59375 3.28125Z" fill="white"/>
<path d="M9.5 3.28125L9.39688 3.59375H9.0625L9.33125 3.79063L9.21875 4.125L9.5 3.91563L9.78125 4.125L9.66875 3.79063L9.9375 3.59375H9.60312L9.5 3.28125Z" fill="white"/>
<path d="M0.9375 4.09375L0.834375 4.40625H0.5L0.76875 4.60313L0.65625 4.9375L0.9375 4.72813L1.21875 4.9375L1.10625 4.60313L1.375 4.40625H1.04062L0.9375 4.09375Z" fill="white"/>
<path d="M2.84375 4.09375L2.74062 4.40625H2.40625L2.675 4.60313L2.5625 4.9375L2.84375 4.72813L3.125 4.9375L3.0125 4.60313L3.28125 4.40625H2.94688L2.84375 4.09375Z" fill="white"/>
<path d="M4.75 4.09375L4.64687 4.40625H4.3125L4.58125 4.60313L4.46875 4.9375L4.75 4.72813L5.03125 4.9375L4.91875 4.60313L5.1875 4.40625H4.85313L4.75 4.09375Z" fill="white"/>
<path d="M6.65625 4.09375L6.55312 4.40625H6.21875L6.4875 4.60313L6.375 4.9375L6.65625 4.72813L6.9375 4.9375L6.825 4.60313L7.09375 4.40625H6.75938L6.65625 4.09375Z" fill="white"/>
<path d="M8.5625 4.09375L8.45938 4.40625H8.125L8.39375 4.60313L8.28125 4.9375L8.5625 4.72813L8.84375 4.9375L8.73125 4.60313L9 4.40625H8.66562L8.5625 4.09375Z" fill="white"/>
<path d="M10.4375 4.09375L10.3344 4.40625H10L10.2688 4.60313L10.1562 4.9375L10.4375 4.72813L10.7188 4.9375L10.6062 4.60313L10.875 4.40625H10.5406L10.4375 4.09375Z" fill="white"/>
<path d="M1.90625 4.90625L1.80313 5.21875H1.46875L1.7375 5.41563L1.625 5.75L1.90625 5.54063L2.1875 5.75L2.075 5.41563L2.34375 5.21875H2.00938L1.90625 4.90625Z" fill="white"/>
<path d="M3.8125 4.90625L3.70937 5.21875H3.375L3.64375 5.41563L3.53125 5.75L3.8125 5.54063L4.09375 5.75L3.98125 5.41563L4.25 5.21875H3.91563L3.8125 4.90625Z" fill="white"/>
<path d="M5.71875 4.90625L5.61562 5.21875H5.28125L5.55 5.41563L5.4375 5.75L5.71875 5.54063L6 5.75L5.8875 5.41563L6.15625 5.21875H5.82188L5.71875 4.90625Z" fill="white"/>
<path d="M7.59375 4.90625L7.49062 5.21875H7.15625L7.425 5.41563L7.3125 5.75L7.59375 5.54063L7.875 5.75L7.7625 5.41563L8.03125 5.21875H7.69688L7.59375 4.90625Z" fill="white"/>
<path d="M9.5 4.90625L9.39688 5.21875H9.0625L9.33125 5.41563L9.21875 5.75L9.5 5.54063L9.78125 5.75L9.66875 5.41563L9.9375 5.21875H9.60312L9.5 4.90625Z" fill="white"/>
<path d="M0.9375 5.6875L0.834375 6H0.5L0.76875 6.19688L0.65625 6.53125L0.9375 6.32188L1.21875 6.53125L1.10625 6.19688L1.375 6H1.04062L0.9375 5.6875Z" fill="white"/>
<path d="M2.84375 5.6875L2.74062 6H2.40625L2.675 6.19688L2.5625 6.53125L2.84375 6.32188L3.125 6.53125L3.0125 6.19688L3.28125 6H2.94688L2.84375 5.6875Z" fill="white"/>
<path d="M4.75 5.6875L4.64687 6H4.3125L4.58125 6.19688L4.46875 6.53125L4.75 6.32188L5.03125 6.53125L4.91875 6.19688L5.1875 6H4.85313L4.75 5.6875Z" fill="white"/>
<path d="M6.65625 5.6875L6.55312 6H6.21875L6.4875 6.19688L6.375 6.53125L6.65625 6.32188L6.9375 6.53125L6.825 6.19688L7.09375 6H6.75938L6.65625 5.6875Z" fill="white"/>
<path d="M8.5625 5.6875L8.45938 6H8.125L8.39375 6.19688L8.28125 6.53125L8.5625 6.32188L8.84375 6.53125L8.73125 6.19688L9 6H8.66562L8.5625 5.6875Z" fill="white"/>
<path d="M10.4375 5.6875L10.3344 6H10L10.2688 6.19688L10.1562 6.53125L10.4375 6.32188L10.7188 6.53125L10.6062 6.19688L10.875 6H10.5406L10.4375 5.6875Z" fill="white"/>
<path d="M2.00938 6.8125L1.90625 6.5L1.80313 6.8125H1.46875L1.7375 7.00938L1.625 7.34375L1.90625 7.13438L2.1875 7.34375L2.075 7.00938L2.34375 6.8125H2.00938Z" fill="white"/>
<path d="M3.91563 6.8125L3.8125 6.5L3.70937 6.8125H3.375L3.64375 7.00938L3.53125 7.34375L3.8125 7.13438L4.09375 7.34375L3.98125 7.00938L4.25 6.8125H3.91563Z" fill="white"/>
<path d="M5.82188 6.8125L5.71875 6.5L5.61562 6.8125H5.28125L5.55 7.00938L5.4375 7.34375L5.71875 7.13438L6 7.34375L5.8875 7.00938L6.15625 6.8125H5.82188Z" fill="white"/>
<path d="M7.69688 6.8125L7.59375 6.5L7.49062 6.8125H7.15625L7.425 7.00938L7.3125 7.34375L7.59375 7.13438L7.875 7.34375L7.7625 7.00938L8.03125 6.8125H7.69688Z" fill="white"/>
<path d="M9.60312 6.8125L9.5 6.5L9.39688 6.8125H9.0625L9.33125 7.00938L9.21875 7.34375L9.5 7.13438L9.78125 7.34375L9.66875 7.00938L9.9375 6.8125H9.60312Z" fill="white"/>
<path d="M1.04062 7.625L0.9375 7.3125L0.834375 7.625H0.5L0.76875 7.82188L0.65625 8.15625L0.9375 7.94688L1.21875 8.15625L1.10625 7.82188L1.375 7.625H1.04062Z" fill="white"/>
<path d="M2.94688 7.625L2.84375 7.3125L2.74062 7.625H2.40625L2.675 7.82188L2.5625 8.15625L2.84375 7.94688L3.125 8.15625L3.0125 7.82188L3.28125 7.625H2.94688Z" fill="white"/>
<path d="M4.85313 7.625L4.75 7.3125L4.64687 7.625H4.3125L4.58125 7.82188L4.46875 8.15625L4.75 7.94688L5.03125 8.15625L4.91875 7.82188L5.1875 7.625H4.85313Z" fill="white"/>
<path d="M6.75938 7.625L6.65625 7.3125L6.55312 7.625H6.21875L6.4875 7.82188L6.375 8.15625L6.65625 7.94688L6.9375 8.15625L6.825 7.82188L7.09375 7.625H6.75938Z" fill="white"/>
<path d="M8.66562 7.625L8.5625 7.3125L8.45938 7.625H8.125L8.39375 7.82188L8.28125 8.15625L8.5625 7.94688L8.84375 8.15625L8.73125 7.82188L9 7.625H8.66562Z" fill="white"/>
<path d="M10.5406 7.625L10.4375 7.3125L10.3344 7.625H10L10.2688 7.82188L10.1562 8.15625L10.4375 7.94688L10.7188 8.15625L10.6062 7.82188L10.875 7.625H10.5406Z" fill="white"/>
</g>
<defs>
<clipPath id="clip0_591_2273">
<rect width="20" height="15" fill="white" transform="translate(0 0.5)"/>
</clipPath>
</defs>
</svg>
